<?xml version="1.0" encoding="UTF-8"?>
<svg id="Layer_1" data-name="Layer 1" xmlns="http://www.w3.org/2000/svg" viewBox="0 0 524.24 500">
  <defs>
    <style>
      .cls-1, .cls-2 {
        fill: #cbcbcb;
      }

      .cls-1, .cls-2, .cls-3, .cls-4, .cls-5, .cls-6 {
        stroke-width: 0px;
      }

      .cls-1, .cls-4, .cls-6 {
        fill-rule: evenodd;
      }

      .cls-3, .cls-6 {
        fill: #01062c;
      }

      .cls-4 {
        fill: #e20d44;
      }

      .cls-5 {
        fill: #fff;
      }
    </style>
  </defs>
  <g>
    <path class="cls-3" d="M416.76,91.84c11.96,30.59,17.1,64,20.67,99.22.74,6.01,11.61,85.73,73.9,143.97l12.9,12.06-17.23,3.79c-.1.02-31.51,6.25-30.4,44.31,7.41,22.46,15.69,41.99,24.61,54.63-.16-.06-75.3-22.77-113.99,40.41l-6.28,10.25-8.34-8.65c-.25-.28-90.85-95.71-170.53-6.37l-8.86,9.93-6.28-11.75c-.09-.18-32.1-61.92-131.07-27.85l-18.34,6.31,6.59-18.25c.05-.14,5.18-14.24,12.6-36.9C47.12,376.56.11,368.27,0,368.27c-.14-.42,99.44-110.76,109.68-184.26.94-9,1.59-17.77,1.91-26.22,2.09-54.86,24.96-95.34,57.52-121.53,22.16-17.84,48.78-28.98,76.36-33.48,27.5-4.49,56.01-2.37,82.08,6.28,39.14,12.98,72.73,40.64,89.21,82.78"/>
    <path class="cls-5" d="M449.31,283.65c4.3,23.21,10,50.09,16.84,75.94,6.21-10.59,14.9-17.2,22.29-21.22-16.65-17.61-29.4-36.54-39.14-54.72"/>
    <path class="cls-2" d="M449.31,283.65c4.3,23.21,10,50.09,16.84,75.94,3.46-5.93,7.7-10.59,12.07-14.27-13.36-18.59-23.17-39.51-28.91-61.67"/>
    <path class="cls-5" d="M64.47,382.68c9.62-30.87,20.95-70.32,30.12-110.93-15.45,30.5-36.8,63.59-65.12,89.8,11.47,3.11,25.18,9.21,35,21.12"/>
    <path class="cls-2" d="M64.47,382.68c9.62-30.87,20.95-70.32,30.12-110.93-6.1,12.05-13.13,24.5-21.14,36.77-5.93,32.91-24.81,60.88-24.81,60.88,5.72,3.33,11.21,7.66,15.83,13.27"/>
    <path class="cls-5" d="M349.2,326.74c-.05.22-12.77,75.05,30.04,142.21,29.63-39.43,66.04-43.57,88.62-41.35-34.5-67.34-40.37-136.09-45.82-200.04-3.99-46.82-7.75-91-22.59-128.97-14.3-36.56-43.57-60.6-77.7-71.93-23.21-7.7-48.68-9.57-73.3-5.56-24.51,4-48.13,13.86-67.7,29.63-28.64,23.04-48.75,58.87-50.62,107.73-3.58,94.02-46.43,227.28-62.51,274.36,70.18-18.12,108.51,9.6,125.25,27.98,34.69-86.82,13.69-133.73,13.61-133.84,22.56,21.27,15.87,82.85,6.84,123.09,52.18-38.05,104.63-19.26,137.8,1.39-14.24-35.46-24.81-85.61-1.92-124.7"/>
    <path class="cls-6" d="M336.77,127.23c18.18,0,32.9,23.07,32.9,51.51s-14.73,51.51-32.9,51.51-32.91-23.05-32.91-51.51,14.74-51.51,32.91-51.51"/>
    <path class="cls-6" d="M345.87,245.95c0,43.15-34.98,78.13-78.13,78.13s-78.13-34.98-78.13-78.13h156.25Z"/>
    <path class="cls-4" d="M302.19,300.6c-3.18-3.63-6.93-6.74-11.11-9.21-6.84-4.04-14.83-6.37-23.34-6.37s-16.5,2.33-23.35,6.37c-4.18,2.47-7.92,5.59-11.11,9.21,9.97,6.3,21.79,9.94,34.45,9.94s24.49-3.64,34.45-9.94"/>
    <path class="cls-1" d="M206.49,326.97s-36.47,118.61-111.42,17.7c-10.62,37.66-21.11,69.59-27.45,88.16,70.18-18.12,108.51,9.6,125.25,27.98,34.69-86.82,13.69-133.73,13.61-133.84"/>
    <path class="cls-1" d="M277.9,364.05c-25.23.04-49.06-10.84-65.5-29.57,15.29,25.85,9.05,79.36.93,115.58,52.18-38.05,104.63-19.26,137.8,1.39-14.24-35.46-24.81-85.61-1.92-124.7-16.25,23.33-42.87,37.26-71.3,37.3"/>
    <path class="cls-1" d="M349.2,326.74c-.05.22-12.77,75.05,30.04,142.21,29.63-39.43,66.04-43.57,88.62-41.35-14.75-28.79-24.28-57.86-30.76-86.69-12.36,12.71-30.13,18.59-47.63,15.76-17.51-2.82-32.53-14-40.26-29.94"/>
  </g>
  <path class="cls-3" d="M211.81,136.99c17.7,0,32.05,17.95,32.05,40.08s-14.35,40.07-32.05,40.07-32.06-17.94-32.06-40.07,14.35-40.08,32.06-40.08Z"/>
</svg>