<?xml version="1.0" encoding="UTF-8" standalone="no"?><!DOCTYPE svg PUBLIC "-//W3C//DTD SVG 1.1//EN" "http://www.w3.org/Graphics/SVG/1.1/DTD/svg11.dtd"><!-- Generated by graphviz version 2.40.1 (20161225.0304)
 --><!-- Title: finite_state_machine Pages: 1 --><svg xmlns="http://www.w3.org/2000/svg" xmlns:xlink="http://www.w3.org/1999/xlink" width="216pt" height="404pt" viewBox="0.00 0.00 216.01 404.00">
<g id="graph0" class="graph" transform="scale(1 1) rotate(0) translate(4 400)">
<title>finite_state_machine</title>
<polygon fill="#ffffff" stroke="transparent" points="-4,4 -4,-400 212.01,-400 212.01,4 -4,4"/>
<!-- reshape1 -->
<g id="node1" class="node">
<title>reshape1</title>
<ellipse fill="none" stroke="#000000" cx="160.505" cy="-306" rx="40.548" ry="18"/>
<text text-anchor="middle" x="160.505" y="-301.8" font-family="Times,serif" font-size="14.00" fill="#000000">reshape</text>
</g>
<!-- transpose1 -->
<g id="node3" class="node">
<title>transpose1</title>
<ellipse fill="none" stroke="#000000" cx="160.505" cy="-234" rx="47.51" ry="18"/>
<text text-anchor="middle" x="160.505" y="-229.8" font-family="Times,serif" font-size="14.00" fill="#000000">transpose</text>
</g>
<!-- reshape1&#45;&gt;transpose1 -->
<g id="edge2" class="edge">
<title>reshape1-&gt;transpose1</title>
<path fill="none" stroke="#000000" d="M160.505,-287.8314C160.505,-280.131 160.505,-270.9743 160.505,-262.4166"/>
<polygon fill="#000000" stroke="#000000" points="164.0051,-262.4132 160.505,-252.4133 157.0051,-262.4133 164.0051,-262.4132"/>
</g>
<!-- reshape2 -->
<g id="node2" class="node">
<title>reshape2</title>
<ellipse fill="none" stroke="#000000" cx="47.505" cy="-306" rx="40.548" ry="18"/>
<text text-anchor="middle" x="47.505" y="-301.8" font-family="Times,serif" font-size="14.00" fill="#000000">reshape</text>
</g>
<!-- transpose2 -->
<g id="node4" class="node">
<title>transpose2</title>
<ellipse fill="none" stroke="#000000" cx="47.505" cy="-234" rx="47.51" ry="18"/>
<text text-anchor="middle" x="47.505" y="-229.8" font-family="Times,serif" font-size="14.00" fill="#000000">transpose</text>
</g>
<!-- reshape2&#45;&gt;transpose2 -->
<g id="edge4" class="edge">
<title>reshape2-&gt;transpose2</title>
<path fill="none" stroke="#000000" d="M47.505,-287.8314C47.505,-280.131 47.505,-270.9743 47.505,-262.4166"/>
<polygon fill="#000000" stroke="#000000" points="51.0051,-262.4132 47.505,-252.4133 44.0051,-262.4133 51.0051,-262.4132"/>
</g>
<!-- mmt4d -->
<g id="node9" class="node">
<title>mmt4d</title>
<ellipse fill="none" stroke="#000000" cx="103.505" cy="-162" rx="38.303" ry="18"/>
<text text-anchor="middle" x="103.505" y="-157.8" font-family="Times,serif" font-size="14.00" fill="#000000">mmt4d</text>
</g>
<!-- transpose1&#45;&gt;mmt4d -->
<g id="edge5" class="edge">
<title>transpose1-&gt;mmt4d</title>
<path fill="none" stroke="#000000" d="M146.7069,-216.5708C139.7755,-207.8153 131.2464,-197.0418 123.6028,-187.3867"/>
<polygon fill="#000000" stroke="#000000" points="126.1273,-184.9367 117.176,-179.2687 120.6389,-189.2816 126.1273,-184.9367"/>
</g>
<!-- transpose2&#45;&gt;mmt4d -->
<g id="edge6" class="edge">
<title>transpose2-&gt;mmt4d</title>
<path fill="none" stroke="#000000" d="M61.061,-216.5708C67.8708,-207.8153 76.2503,-197.0418 83.7598,-187.3867"/>
<polygon fill="#000000" stroke="#000000" points="86.6971,-189.311 90.0738,-179.2687 81.1716,-185.0134 86.6971,-189.311"/>
</g>
<!-- reshape3 -->
<g id="node5" class="node">
<title>reshape3</title>
<ellipse fill="none" stroke="#000000" cx="103.505" cy="-18" rx="40.548" ry="18"/>
<text text-anchor="middle" x="103.505" y="-13.8" font-family="Times,serif" font-size="14.00" fill="#000000">reshape</text>
</g>
<!-- transpose3 -->
<g id="node6" class="node">
<title>transpose3</title>
<ellipse fill="none" stroke="#000000" cx="103.505" cy="-90" rx="47.51" ry="18"/>
<text text-anchor="middle" x="103.505" y="-85.8" font-family="Times,serif" font-size="14.00" fill="#000000">transpose</text>
</g>
<!-- transpose3&#45;&gt;reshape3 -->
<g id="edge8" class="edge">
<title>transpose3-&gt;reshape3</title>
<path fill="none" stroke="#000000" d="M103.505,-71.8314C103.505,-64.131 103.505,-54.9743 103.505,-46.4166"/>
<polygon fill="#000000" stroke="#000000" points="107.0051,-46.4132 103.505,-36.4133 100.0051,-46.4133 107.0051,-46.4132"/>
</g>
<!-- lhs -->
<g id="node7" class="node">
<title>lhs</title>
<ellipse fill="none" stroke="#000000" cx="160.505" cy="-378" rx="27" ry="18"/>
<text text-anchor="middle" x="160.505" y="-373.8" font-family="Times,serif" font-size="14.00" fill="#000000">lhs</text>
</g>
<!-- lhs&#45;&gt;reshape1 -->
<g id="edge1" class="edge">
<title>lhs-&gt;reshape1</title>
<path fill="none" stroke="#000000" d="M160.505,-359.8314C160.505,-352.131 160.505,-342.9743 160.505,-334.4166"/>
<polygon fill="#000000" stroke="#000000" points="164.0051,-334.4132 160.505,-324.4133 157.0051,-334.4133 164.0051,-334.4132"/>
</g>
<!-- rhs -->
<g id="node8" class="node">
<title>rhs</title>
<ellipse fill="none" stroke="#000000" cx="47.505" cy="-378" rx="27" ry="18"/>
<text text-anchor="middle" x="47.505" y="-373.8" font-family="Times,serif" font-size="14.00" fill="#000000">rhs</text>
</g>
<!-- rhs&#45;&gt;reshape2 -->
<g id="edge3" class="edge">
<title>rhs-&gt;reshape2</title>
<path fill="none" stroke="#000000" d="M47.505,-359.8314C47.505,-352.131 47.505,-342.9743 47.505,-334.4166"/>
<polygon fill="#000000" stroke="#000000" points="51.0051,-334.4132 47.505,-324.4133 44.0051,-334.4133 51.0051,-334.4132"/>
</g>
<!-- mmt4d&#45;&gt;transpose3 -->
<g id="edge7" class="edge">
<title>mmt4d-&gt;transpose3</title>
<path fill="none" stroke="#000000" d="M103.505,-143.8314C103.505,-136.131 103.505,-126.9743 103.505,-118.4166"/>
<polygon fill="#000000" stroke="#000000" points="107.0051,-118.4132 103.505,-108.4133 100.0051,-118.4133 107.0051,-118.4132"/>
</g>
</g>
</svg>